<svg xmlns="http://www.w3.org/2000/svg" width="150" height="83" viewBox="0 0 150 83" fill="none"><g id="dots-rect-white"><path d="M15.3846 7.75862C15.3846 12.0436 11.9407 15.5172 7.69231 15.5172C3.44396 15.5172 0 12.0436 0 7.75862C0 3.47365 3.44396 0 7.69231 0C11.9407 0 15.3846 3.47365 15.3846 7.75862Z" fill="white"></path><path d="M42.3077 7.75862C42.3077 12.0436 38.8637 15.5172 34.6154 15.5172C30.367 15.5172 26.9231 12.0436 26.9231 7.75862C26.9231 3.47365 30.367 0 34.6154 0C38.8637 0 42.3077 3.47365 42.3077 7.75862Z" fill="white"></path><path d="M69.2308 7.75862C69.2308 12.0436 65.7868 15.5172 61.5385 15.5172C57.2901 15.5172 53.8462 12.0436 53.8462 7.75862C53.8462 3.47365 57.2901 0 61.5385 0C65.7868 0 69.2308 3.47365 69.2308 7.75862Z" fill="white"></path><path d="M96.1538 7.75862C96.1538 12.0436 92.7099 15.5172 88.4615 15.5172C84.2132 15.5172 80.7692 12.0436 80.7692 7.75862C80.7692 3.47365 84.2132 0 88.4615 0C92.7099 0 96.1538 3.47365 96.1538 7.75862Z" fill="white"></path><path d="M123.077 7.75862C123.077 12.0436 119.633 15.5172 115.385 15.5172C111.136 15.5172 107.692 12.0436 107.692 7.75862C107.692 3.47365 111.136 0 115.385 0C119.633 0 123.077 3.47365 123.077 7.75862Z" fill="white"></path><path d="M150 7.75862C150 12.0436 146.556 15.5172 142.308 15.5172C138.059 15.5172 134.615 12.0436 134.615 7.75862C134.615 3.47365 138.059 0 142.308 0C146.556 0 150 3.47365 150 7.75862Z" fill="white"></path><path d="M15.3846 41.3793C15.3846 45.6643 11.9407 49.1379 7.69231 49.1379C3.44396 49.1379 0 45.6643 0 41.3793C0 37.0943 3.44396 33.6207 7.69231 33.6207C11.9407 33.6207 15.3846 37.0943 15.3846 41.3793Z" fill="white"></path><path d="M42.3077 41.3793C42.3077 45.6643 38.8637 49.1379 34.6154 49.1379C30.367 49.1379 26.9231 45.6643 26.9231 41.3793C26.9231 37.0943 30.367 33.6207 34.6154 33.6207C38.8637 33.6207 42.3077 37.0943 42.3077 41.3793Z" fill="white"></path><path d="M69.2308 41.3793C69.2308 45.6643 65.7868 49.1379 61.5385 49.1379C57.2901 49.1379 53.8462 45.6643 53.8462 41.3793C53.8462 37.0943 57.2901 33.6207 61.5385 33.6207C65.7868 33.6207 69.2308 37.0943 69.2308 41.3793Z" fill="white"></path><path d="M96.1538 41.3793C96.1538 45.6643 92.7099 49.1379 88.4615 49.1379C84.2132 49.1379 80.7692 45.6643 80.7692 41.3793C80.7692 37.0943 84.2132 33.6207 88.4615 33.6207C92.7099 33.6207 96.1538 37.0943 96.1538 41.3793Z" fill="white"></path><path d="M123.077 41.3793C123.077 45.6643 119.633 49.1379 115.385 49.1379C111.136 49.1379 107.692 45.6643 107.692 41.3793C107.692 37.0943 111.136 33.6207 115.385 33.6207C119.633 33.6207 123.077 37.0943 123.077 41.3793Z" fill="white"></path><path d="M150 41.3793C150 45.6643 146.556 49.1379 142.308 49.1379C138.059 49.1379 134.615 45.6643 134.615 41.3793C134.615 37.0943 138.059 33.6207 142.308 33.6207C146.556 33.6207 150 37.0943 150 41.3793Z" fill="white"></path><path d="M15.3846 75C15.3846 79.285 11.9407 82.7586 7.69231 82.7586C3.44396 82.7586 0 79.285 0 75C0 70.715 3.44396 67.2414 7.69231 67.2414C11.9407 67.2414 15.3846 70.715 15.3846 75Z" fill="white"></path><path d="M42.3077 75C42.3077 79.285 38.8637 82.7586 34.6154 82.7586C30.367 82.7586 26.9231 79.285 26.9231 75C26.9231 70.715 30.367 67.2414 34.6154 67.2414C38.8637 67.2414 42.3077 70.715 42.3077 75Z" fill="white"></path><path d="M69.2308 75C69.2308 79.285 65.7868 82.7586 61.5385 82.7586C57.2901 82.7586 53.8462 79.285 53.8462 75C53.8462 70.715 57.2901 67.2414 61.5385 67.2414C65.7868 67.2414 69.2308 70.715 69.2308 75Z" fill="white"></path><path d="M96.1538 75C96.1538 79.285 92.7099 82.7586 88.4615 82.7586C84.2132 82.7586 80.7692 79.285 80.7692 75C80.7692 70.715 84.2132 67.2414 88.4615 67.2414C92.7099 67.2414 96.1538 70.715 96.1538 75Z" fill="white"></path><path d="M123.077 75C123.077 79.285 119.633 82.7586 115.385 82.7586C111.136 82.7586 107.692 79.285 107.692 75C107.692 70.715 111.136 67.2414 115.385 67.2414C119.633 67.2414 123.077 70.715 123.077 75Z" fill="white"></path><path d="M150 75C150 79.285 146.556 82.7586 142.308 82.7586C138.059 82.7586 134.615 79.285 134.615 75C134.615 70.715 138.059 67.2414 142.308 67.2414C146.556 67.2414 150 70.715 150 75Z" fill="white"></path></g></svg>