<svg xmlns="http://www.w3.org/2000/svg" width="680" height="129" viewBox="0 0 680 129" fill="none"><path d="M101.548 0.246826H67.7703L0.218262 67.7988V95.1428H67.7703V128.919H101.548V67.7988H33.9943L101.548 0.246826Z" fill="white"></path><path d="M116.023 34.0229L149.799 0.246921H116.023V34.0229Z" fill="white"></path><path d="M183.575 34.0229V0.246907L149.799 0.246921L149.799 34.0229L116.023 67.7989V101.576H149.799V67.7989L183.575 34.0229Z" fill="white"></path><path d="M183.575 67.7989L149.799 101.576H183.575V67.7989Z" fill="white"></path><path d="M269.518 45.6719H272.804C275.56 45.6719 279.378 45.3532 281.816 43.0212C283.406 41.5372 284.255 38.9932 284.255 36.6599C284.255 33.7972 282.983 32.2079 282.028 31.3599C280.014 29.7692 277.152 29.6626 274.819 29.6626H271.427L269.518 45.6719ZM265.914 74.9332H271.85C274.926 74.9332 279.908 74.6146 282.452 72.2826C283.406 71.4346 284.996 69.4199 284.996 65.4972C284.996 64.0132 284.679 61.7866 283.088 60.1959C280.756 57.8639 275.879 57.7572 274.395 57.7572H268.034L265.914 74.9332ZM256.69 16.9412H279.271C284.043 16.9412 290.403 17.4706 294.856 21.8172C297.4 24.2559 299.415 28.3906 299.415 33.9039C299.415 38.4626 298.25 42.0666 296.128 44.9292C293.796 48.1106 291.04 49.5946 288.708 50.3372C292.312 51.1852 294.962 52.8812 296.766 54.5772C300.051 57.7572 301.323 61.2559 301.323 65.8146C301.323 73.3426 298.355 78.2199 295.599 80.9759C289.98 86.5946 281.711 87.6546 274.288 87.6546H247.996L256.69 16.9412Z" fill="white"></path><path d="M356.978 30.7234H333.866L332.169 44.3994H354.434L352.737 58.182H330.473L328.565 73.8727H352.101L350.403 87.6553H310.967L319.658 16.9407H358.673L356.978 30.7234Z" fill="white"></path><path d="M389.203 16.9408L382.206 73.8728H404.258L402.562 87.6555H364.183L372.876 16.9408H389.203Z" fill="white"></path><path d="M448.358 49.0644H481.435C480.905 66.8751 474.014 75.6751 470.515 79.2791C462.458 87.6551 453.234 89.2444 444.435 89.2444C435.425 89.2444 425.99 87.1244 418.462 79.2791C411.147 71.6471 409.45 62.3164 409.45 54.7884C409.45 41.4311 414.327 32.3137 420.053 26.2697C428.957 16.9404 439.029 15.3511 448.994 15.3511C455.354 15.3511 462.563 16.4111 468.925 20.5457C473.59 23.6204 477.723 28.6031 480.375 33.2671L465.321 41.2191C464.049 38.3564 461.717 35.1751 458.747 33.1617C455.037 30.6177 451.007 30.1937 447.934 30.1937C442.21 30.1937 437.439 31.5711 433.093 36.1297C428.427 41.0071 426.201 48.0044 426.201 54.1524C426.201 59.5604 428.215 65.6031 432.033 69.3137C436.485 73.7657 442.21 74.4031 446.554 74.4031C449.841 74.4031 454.294 73.7657 457.793 71.2217C460.337 69.4204 462.775 66.1337 463.835 62.1044H446.767L448.358 49.0644Z" fill="white"></path><path d="M515.036 16.9408L506.343 87.6555H490.016L498.71 16.9408H515.036Z" fill="white"></path><path d="M547.052 16.9408L542.387 55.5315C542.069 57.7582 541.857 58.7128 541.857 61.6808C541.857 64.5435 542.281 68.1475 544.931 70.7982C546.84 72.6008 549.913 73.9782 554.26 73.9782C559.561 73.9782 562.849 72.2822 564.651 70.4795C568.149 66.9808 568.892 61.0448 569.421 57.0155L574.299 16.9408H590.624L585.535 58.0768C584.475 66.5568 583.521 75.1448 577.159 81.6115C570.057 88.9275 559.773 89.2448 553.943 89.2448C546.945 89.2448 538.04 88.3968 531.573 81.9302C527.12 77.5835 525.317 72.1768 525.317 65.6035C525.317 62.4222 525.848 57.3342 526.167 54.4715L530.725 16.9408H547.052Z" fill="white"></path><path d="M594.435 87.6549L614.578 16.9403H628.042L640.13 59.2416L663.028 16.9403H676.916L679.462 87.6549H663.134L662.71 45.4603L640.13 87.6549H633.979L621.575 45.4603L610.762 87.6549H594.435Z" fill="white"></path></svg>